<?xml version="1.0" encoding="UTF-8"?>
<svg width="140px" height="67px" viewBox="0 0 140 67" version="1.1" xmlns="http://www.w3.org/2000/svg" xmlns:xlink="http://www.w3.org/1999/xlink">
    <!-- Generator: Sketch 3.8.1 (29687) - http://www.bohemiancoding.com/sketch -->
    <title>Group 17</title>
    <desc>Created with Sketch.</desc>
    <defs></defs>
    <g id="Page-1" stroke="none" stroke-width="1" fill="none" fill-rule="evenodd">
        <g id="Group-17">
            <path d="M34.8053832,41.4296296 C34.8053832,39.0886667 34.8041317,36.7477037 34.8053832,34.408 C34.8066347,33.694 34.8091377,33.688963 35.5012156,33.6864444 C37.1394251,33.6826667 38.7788862,33.6725926 40.4170958,33.6914815 C40.8776467,33.6977778 41.0415928,33.5365926 41.0353353,33.076963 C41.0165629,31.7824444 41.0315808,30.4879259 41.0290778,29.1934074 C41.0278263,28.3937778 41.0240719,28.3912593 40.2368802,28.39 C38.6149401,28.3887407 36.993,28.39 35.3723114,28.3862222 C35.112,28.3862222 34.8078862,28.4252593 34.8103892,28.016 C34.8178982,26.8272593 34.7878623,25.6385185 34.8504371,24.4535556 C34.895491,23.5846667 35.4987126,23.0922963 36.3622455,23.0885185 C37.7363892,23.0834815 39.1117844,23.0797037 40.4859281,23.0897778 C40.8551198,23.0922963 41.0365868,22.9714074 41.0328323,22.570963 C41.0215689,21.046 41.0215689,19.521037 41.0328323,17.9960741 C41.0353353,17.6308889 40.8976707,17.4911111 40.535988,17.4961481 C39.6549341,17.5087407 38.7738802,17.4860741 37.8928263,17.4986667 C36.8540838,17.515037 35.8003234,17.4482963 34.7803533,17.6031852 C31.8756287,18.0439259 29.7605988,20.4314815 29.071024,23.2056296 C28.6968263,24.7104444 28.8057066,26.2354074 28.8019521,27.7565926 C28.8007006,28.2414074 28.645515,28.4063704 28.1611856,28.3975556 C26.7870419,28.3723704 25.4116467,28.4000741 24.037503,28.384963 C23.611994,28.3799259 23.4405389,28.5184444 23.4480479,28.9654815 C23.4680719,30.3481481 23.4693234,31.7320741 23.4480479,33.1147407 C23.4405389,33.5642963 23.6107425,33.6977778 24.037503,33.6914815 C25.3415629,33.6725926 26.6456228,33.6839259 27.9496826,33.6851852 C28.7906886,33.6851852 28.7931916,33.6864444 28.7931916,34.5364444 C28.7944431,39.1818519 28.7994491,43.8285185 28.7856826,48.4739259 C28.7844311,48.9625185 28.8983174,49.169037 29.4289521,49.158963 C31.0145988,49.1287407 32.6002455,49.135037 34.1871437,49.1551852 C34.6714731,49.1614815 34.8178982,48.9864444 34.8141437,48.5054074 C34.7941198,46.1468148 34.8053832,43.7882222 34.8053832,41.4296296 M31.9469641,0 L34.2747485,0 C34.5350599,0.0415555556 34.7928683,0.102 35.0544311,0.11962963 C37.6287605,0.297185185 40.1580359,0.716518519 42.633497,1.46955556 C46.9761916,2.79051852 50.8846168,4.91362963 54.355018,7.84896296 C57.3798862,10.4065185 59.8653593,13.4136296 61.8314611,16.8665185 C63.6173473,20.0045926 64.8550778,23.3466667 65.5446527,26.8839259 C66.4507365,31.5381481 66.3693892,36.181037 65.3056168,40.8151111 C64.2743832,45.3043704 62.4033952,49.396963 59.6863952,53.0878519 C56.9255928,56.8379259 53.5227725,59.8752593 49.4841916,62.1998519 C46.380479,63.9867407 43.0815329,65.2434815 39.5861018,65.9385926 C34.9643234,66.8578519 30.3462994,66.7948889 25.7395389,65.7282963 C20.1929042,64.4451111 15.3095629,61.8925926 11.0707425,58.0908889 C8.08216766,55.4111852 5.66177246,52.2781481 3.81205988,48.6980741 C2.05620958,45.3005926 0.88605988,41.718 0.397976048,37.9175556 C0.251550898,36.7754074 0.131407186,35.6307407 0,34.4873333 L0,32.1463704 C0.0412994012,31.8668148 0.102622754,31.5885185 0.122646707,31.3077037 C0.302862275,28.735037 0.717107784,26.208963 1.4617485,23.7357778 C3.22510778,17.878963 6.36636527,12.8973333 10.8317066,8.75688889 C13.0205749,6.72822222 15.450982,5.0382963 18.1041557,3.68207407 C21.3167485,2.03874074 24.7020479,0.926814815 28.2775749,0.431925926 C29.4977844,0.263185185 30.7242515,0.142296296 31.9469641,0" id="Fill-1" fill="#FFFFFF"></path>
            <path d="M108.716637,42.0676957 C108.716637,39.7471837 108.715389,37.4266716 108.716637,35.1074079 C108.717885,34.3996454 108.720382,34.3946524 109.410695,34.3921559 C111.044728,34.3884111 112.680009,34.3784251 114.314041,34.3971489 C114.773418,34.4033902 114.936946,34.2436132 114.930704,33.7879989 C114.91198,32.5047894 114.926959,31.22158 114.924463,29.9383705 C114.923214,29.1457266 114.91947,29.14323 114.134285,29.1419818 C112.516481,29.1407335 110.899924,29.1419818 109.28212,29.138237 C109.022472,29.138237 108.719134,29.176933 108.72163,28.7712491 C108.72912,27.5928933 108.699161,26.4145375 108.761576,25.2399266 C108.806515,24.3786284 109.408199,23.8905594 110.26953,23.8868146 C111.64017,23.8818216 113.012058,23.8780768 114.382698,23.8880629 C114.750948,23.8905594 114.931953,23.7707266 114.928208,23.3737805 C114.916973,21.8621398 114.916973,20.3504991 114.928208,18.8388584 C114.930704,18.4768635 114.793391,18.3383068 114.43263,18.3432998 C113.553823,18.3557824 112.675015,18.3333138 111.796208,18.3457964 C110.760114,18.3620237 109.70904,18.295866 108.691671,18.4494018 C105.794353,18.8862922 103.684716,21.2529898 102.996899,24.0029026 C102.623656,25.4945712 102.732258,27.0062119 102.728513,28.5141079 C102.727265,28.9946873 102.572475,29.1582091 102.089381,29.1494713 C100.718741,29.1245062 99.3468526,29.1519678 97.9762127,29.1369887 C97.5517886,29.1319957 97.3807707,29.2693041 97.3882606,29.7124358 C97.4082334,31.0830233 97.4094818,32.4548591 97.3882606,33.8254467 C97.3807707,34.2710748 97.5505403,34.4033902 97.9762127,34.3971489 C99.2769475,34.3784251 100.577682,34.3896594 101.878417,34.3909076 C102.717279,34.3909076 102.719775,34.3921559 102.719775,35.2347302 C102.721024,39.8395548 102.726017,44.4456277 102.712285,49.0504523 C102.711037,49.5347765 102.824633,49.7394908 103.353915,49.7295048 C104.935518,49.6995466 106.517122,49.7057878 108.099974,49.72576 C108.583068,49.7320013 108.72912,49.5584934 108.725375,49.0816587 C108.705402,46.7436711 108.716637,44.4056834 108.716637,42.0676957 M105.865506,1 L108.187355,1 C108.447003,1.04119252 108.704154,1.10110892 108.96505,1.11858453 C111.532815,1.29458894 114.055642,1.71025893 116.524791,2.45671735 C120.856413,3.76614024 124.754872,5.87070361 128.216425,8.78039354 C131.23358,11.315606 133.712716,14.2964467 135.673804,17.7191707 C137.455137,20.8298302 138.689712,24.1427076 139.377528,27.6490649 C140.281302,32.2626274 140.200162,36.8649554 139.139102,41.4585457 C138.110498,45.9085863 136.24428,49.9654256 133.534208,53.6240704 C130.780445,57.3413834 127.386301,60.3521823 123.358018,62.656467 C120.262219,64.4277454 116.971685,65.6735071 113.485166,66.3625457 C108.875172,67.2737742 104.268923,67.2113613 99.6739088,66.1540865 C94.1414167,64.8821114 89.2705269,62.351892 85.0425146,58.5834004 C82.0615599,55.9271069 79.6473362,52.8214404 77.80234,49.2726422 C76.0509667,45.9048415 74.8838006,42.3535469 74.3969613,38.5863035 C74.2509095,37.4541333 74.1310721,36.3194666 74,35.1860481 L74,32.8655361 C74.0411941,32.5884228 74.1023611,32.3125577 74.122334,32.0341961 C74.30209,29.4840045 74.7152793,26.9799985 75.4580214,24.5284194 C77.2168845,18.7227703 80.3501324,13.7846608 84.8040881,9.68038773 C86.9873753,7.66944372 89.4115854,5.99428118 92.0579941,4.64990706 C95.2623955,3.02093007 98.6390631,1.91871806 102.205473,1.42815257 C103.422572,1.26088597 104.645911,1.14105318 105.865506,1" id="Fill-16" fill="#000000"></path>
            <path d="M109.335069,33.8521363 C108.626814,33.8533691 108.624253,33.8583003 108.624253,34.557303 C108.622972,36.8490946 108.622972,39.1408863 108.622972,41.4326779 C108.622972,43.7404961 108.611445,46.0495471 108.631937,48.3585981 C108.63706,48.8295311 108.487213,49.0008915 107.990282,48.9947275 C106.367572,48.9750025 104.743582,48.9700713 103.120872,48.9996587 C102.579115,49.0095212 102.461286,48.8061077 102.463847,48.3290107 C102.477936,43.779946 102.471532,39.2321141 102.470251,34.6830495 C102.470251,33.8509035 102.46897,33.8509035 101.608307,33.8496707 C100.273766,33.8496707 98.9392247,33.8373426 97.6046837,33.8558347 C97.1679481,33.8619988 96.9937661,33.7325538 97.0001699,33.2924411 C97.0219426,31.9388169 97.0219426,30.58396 97.0001699,29.2303359 C96.9937661,28.7914559 97.1692288,28.655847 97.6034029,28.6607782 C99.0096659,28.6768047 100.41721,28.6496829 101.823473,28.6743391 C102.320404,28.6829688 102.479216,28.5214708 102.480497,28.0456066 C102.483059,26.5576063 102.372914,25.063442 102.754578,23.5902354 C103.460271,20.8743575 105.626018,18.5369519 108.597357,18.1067016 C109.641168,17.9550661 110.719559,18.0191722 111.782581,18.0043785 C112.684229,17.9908176 113.587157,18.0142409 114.488805,18.0019128 C114.858942,17.9957488 114.998543,18.1338234 114.995982,18.4901052 C114.984455,19.9830367 114.984455,21.4759682 114.997263,22.9688997 C114.999824,23.3621657 114.815396,23.4792826 114.437575,23.476817 C113.030031,23.4681873 111.623768,23.4718857 110.217505,23.476817 C109.333788,23.4792826 108.716467,23.9625437 108.669079,24.811949 C108.605042,25.9720221 108.63706,27.1370265 108.629376,28.2995652 C108.626814,28.7014609 108.936756,28.662011 109.203152,28.6632438 C110.863003,28.6669422 112.522855,28.6644766 114.181425,28.6669422 C114.987017,28.6669422 114.99214,28.6706407 114.99342,29.4522415 C114.994701,30.719569 114.979332,31.9868965 114.999824,33.254224 C115.006228,33.705432 114.83845,33.8619988 114.367134,33.8570675 C112.690633,33.8373426 111.012851,33.8484379 109.335069,33.8521363 Z" id="Fill-20" fill="#FFFFFF"></path>
        </g>
    </g>
</svg>